<svg xmlns="http://www.w3.org/2000/svg" xmlns:xlink="http://www.w3.org/1999/xlink" width="510" height="450.78"><rect width="510" height="450.78" rx="5" ry="5" class="a"/><svg y="0%" x="0%"><circle cx="20" cy="20" r="6" fill="#ff5f58"/><circle cx="40" cy="20" r="6" fill="#ffbd2e"/><circle cx="60" cy="20" r="6" fill="#18c132"/></svg><svg height="390.78" viewBox="0 0 47 39.078" width="470" x="15" xmlns="http://www.w3.org/2000/svg" xmlns:xlink="http://www.w3.org/1999/xlink" y="50"><style>@keyframes i{0%{transform:translateX(0)}5.2%{transform:translateX(-141px)}17%{transform:translateX(-188px)}19.9%{transform:translateX(-235px)}24.9%{transform:translateX(-282px)}32.8%{transform:translateX(-329px)}39.8%{transform:translateX(-376px)}44.9%{transform:translateX(-423px)}47.6%{transform:translateX(-470px)}51.3%{transform:translateX(-517px)}55.2%{transform:translateX(-564px)}58.5%{transform:translateX(-611px)}61.3%{transform:translateX(-658px)}71.4%{transform:translateX(-705px)}75.3%{transform:translateX(-752px)}81.6%{transform:translateX(-799px)}88.6%{transform:translateX(-846px)}93.5%{transform:translateX(-893px)}99.9%{transform:translateX(-940px)}to{transform:translateX(-987px)}}.a{fill:#282d35}.f{fill:#b9c0cb;white-space:pre}</style><g font-family="Monaco,Consolas,Menlo,'Bitstream Vera Sans Mono','Powerline Symbols',monospace" font-size="1.67"><defs><symbol id="1"><text y="1.67" class="f">raffi@internet</text><text x="15.03" y="1.67" class="f">~</text><text x="17.034" y="1.67" class="f">%</text><text x="19.038" y="1.67" class="f">cat</text></symbol><symbol id="2"><text y="1.67" class="f">raffi@internet</text><text x="15.03" y="1.67" class="f">~</text><text x="17.034" y="1.67" class="f">%</text><text x="19.038" y="1.67" class="f">cat</text><text x="23.046" y="1.67" class="f">~/.ssh/id_rsa.pub</text></symbol><symbol id="a"><path fill="transparent" d="M0 0h47v18H0z"/></symbol><symbol id="b"><path fill="#6f7683" d="M0 0h1.102v2.171H0z"/></symbol></defs><path class="a" d="M0 0h47v39.078H0z"/><g style="animation-duration:8.588665s;animation-iteration-count:1;animation-fill-mode:forwards;animation-name:i;animation-timing-function:steps(1,end)"><svg width="1034"><svg><use xlink:href="#a"/><use xlink:href="#b" x="-.004"/></svg><svg x="47"><use xlink:href="#a"/><use xlink:href="#b" x="-.004"/></svg><svg x="94"><use xlink:href="#a"/><use xlink:href="#b" x="-.004"/></svg><svg x="141"><use xlink:href="#a"/><use xlink:href="#b" x="18.996"/><text y="1.67" class="f">raffi@internet</text><text x="15.03" y="1.67" class="f">~</text><text x="17.034" y="1.67" class="f">%</text></svg><svg x="188"><use xlink:href="#a"/><use xlink:href="#b" x="19.996"/><text y="1.67" class="f">raffi@internet</text><text x="15.03" y="1.67" class="f">~</text><text x="17.034" y="1.67" class="f">%</text><text x="19.038" y="1.67" class="f">c</text></svg><svg x="235"><use xlink:href="#a"/><use xlink:href="#b" x="20.996"/><text y="1.67" class="f">raffi@internet</text><text x="15.03" y="1.67" class="f">~</text><text x="17.034" y="1.67" class="f">%</text><text x="19.038" y="1.67" class="f">ca</text></svg><svg x="282"><use xlink:href="#a"/><use xlink:href="#b" x="21.996"/><use xlink:href="#1"/></svg><svg x="329"><use xlink:href="#a"/><use xlink:href="#b" x="22.996"/><use xlink:href="#1"/></svg><svg x="376"><use xlink:href="#a"/><use xlink:href="#b" x="23.996"/><text y="1.67" class="f">raffi@internet</text><text x="15.03" y="1.67" class="f">~</text><text x="17.034" y="1.67" class="f">%</text><text x="19.038" y="1.67" class="f">cat</text><text x="23.046" y="1.67" class="f">~</text></svg><svg x="423"><use xlink:href="#a"/><use xlink:href="#b" x="24.996"/><text y="1.67" class="f">raffi@internet</text><text x="15.03" y="1.67" class="f">~</text><text x="17.034" y="1.67" class="f">%</text><text x="19.038" y="1.67" class="f">cat</text><text x="23.046" y="1.67" class="f">~/</text></svg><svg x="470"><use xlink:href="#a"/><use xlink:href="#b" x="25.996"/><text y="1.67" class="f">raffi@internet</text><text x="15.03" y="1.67" class="f">~</text><text x="17.034" y="1.67" class="f">%</text><text x="19.038" y="1.67" class="f">cat</text><text x="23.046" y="1.67" class="f">~/.</text></svg><svg x="517"><use xlink:href="#a"/><use xlink:href="#b" x="26.996"/><text y="1.67" class="f">raffi@internet</text><text x="15.03" y="1.67" class="f">~</text><text x="17.034" y="1.67" class="f">%</text><text x="19.038" y="1.67" class="f">cat</text><text x="23.046" y="1.67" class="f">~/.s</text></svg><svg x="564"><use xlink:href="#a"/><use xlink:href="#b" x="27.996"/><text y="1.67" class="f">raffi@internet</text><text x="15.03" y="1.67" class="f">~</text><text x="17.034" y="1.67" class="f">%</text><text x="19.038" y="1.67" class="f">cat</text><text x="23.046" y="1.67" class="f">~/.ss</text></svg><svg x="611"><use xlink:href="#a"/><use xlink:href="#b" x="28.996"/><text y="1.67" class="f">raffi@internet</text><text x="15.03" y="1.67" class="f">~</text><text x="17.034" y="1.67" class="f">%</text><text x="19.038" y="1.67" class="f">cat</text><text x="23.046" y="1.67" class="f">~/.ssh</text></svg><svg x="658"><use xlink:href="#a"/><use xlink:href="#b" x="29.996"/><text y="1.67" class="f">raffi@internet</text><text x="15.03" y="1.67" class="f">~</text><text x="17.034" y="1.67" class="f">%</text><text x="19.038" y="1.67" class="f">cat</text><text x="23.046" y="1.67" class="f">~/.ssh</text><text x="29.058" y="1.67" style="white-space:pre" fill="#b9c0cb" font-weight="700">/</text></svg><svg x="705"><use xlink:href="#a"/><use xlink:href="#b" x="30.996"/><text y="1.67" class="f">raffi@internet</text><text x="15.03" y="1.67" class="f">~</text><text x="17.034" y="1.67" class="f">%</text><text x="19.038" y="1.67" class="f">cat</text><text x="23.046" y="1.67" class="f">~/.ssh/i</text></svg><svg x="752"><use xlink:href="#a"/><use xlink:href="#b" x="31.996"/><text y="1.67" class="f">raffi@internet</text><text x="15.03" y="1.67" class="f">~</text><text x="17.034" y="1.67" class="f">%</text><text x="19.038" y="1.67" class="f">cat</text><text x="23.046" y="1.67" class="f">~/.ssh/id</text></svg><svg x="799"><use xlink:href="#a"/><use xlink:href="#b" x="35.996"/><text y="1.67" class="f">raffi@internet</text><text x="15.03" y="1.67" class="f">~</text><text x="17.034" y="1.67" class="f">%</text><text x="19.038" y="1.67" class="f">cat</text><text x="23.046" y="1.67" class="f">~/.ssh/id_rsa</text></svg><svg x="846"><use xlink:href="#a"/><use xlink:href="#b" x="36.996"/><text y="1.67" class="f">raffi@internet</text><text x="15.03" y="1.67" class="f">~</text><text x="17.034" y="1.67" class="f">%</text><text x="19.038" y="1.67" class="f">cat</text><text x="23.046" y="1.67" class="f">~/.ssh/id_rsa.</text></svg><svg x="893"><use xlink:href="#a"/><use xlink:href="#b" x="40.996"/><use xlink:href="#2"/></svg><svg x="940"><use xlink:href="#a"/><use xlink:href="#b" x="-.004" y="2.146"/><use xlink:href="#2"/></svg><svg x="987"><use xlink:href="#a"/><use xlink:href="#b" x="-.004" y="36.882"/><use xlink:href="#2"/><text y="3.841" class="f">ssh-rsa</text><text x="8.016" y="3.841" class="f">AAAAB3NzaC1yc2EAAAADAQABAAACAQDNKPUWPvf</text><text y="6.012" class="f">WgFlQtVXzLmsnGt80r9kknDs0mUKdTSQjqM5oseQq1dUaDX</text><text y="8.183" class="f">NRaPe5/H4eZxQ7z8wefQdZx8FtxX8+BP546pTIpOg0M4LJi</text><text y="10.354" class="f">f7NWtFBEWOSvwzmKTQUHhKGiP2HlcL79KURP1y1x35eQmk8</text><text y="12.525" class="f">zD3OKo59lLfi9sNp8JuQEG9EymCynQwvjVgI4bflyGgeRdC</text><text y="14.696" class="f">TlD3xXrmYkewbHuvzPIcyEwzm4iIIT4ksZqkngIcGzWkK9n</text><text y="16.867" class="f">nAUB0oYGw+7Pcx4QI4YBg3oqBfdC5v1mXXyDIQOtHQh6DD0</text><text y="19.038" class="f">BoZf1FKoo5MeWpvJCOLA6CJWE3JEzbVWYeN10q41tRuDoj5</text><text y="21.209" class="f">wLUVMpg1GREOJFMpHFOVREf+cmTyWk0Qk6KiPAFWZuRjlKd</text><text y="23.38" class="f">W19uO9D6+bGH/3Jf5lNCBFi5JzDY85GB6LabzyGQOaJ9pOX</text><text y="25.551" class="f">VFA+t6zTL16sNLeraMXMJeeQrRtm77llluFDPsPUJO4eyYi</text><text y="27.722" class="f">e2kPCjo7aRwDGZ5wALO/e0b2EHLb0xkjcc9UleHPDyBy7HD</text><text y="29.893" class="f">jd+QqgPP/U+15+QGdKlfOpjflKGaAndUS3J57H4DRPJTceX</text><text y="32.064" class="f">TZStNEShkBHfl9wXfPm7uQciArqI/v7mHsqpJtv8xXzoOK/</text><text y="34.235" class="f">RnB6wWTbDG0OZBZj/mWMQ9RJTv9cBknMYe5XcJ38jWWSCNX</text><text y="36.406" class="f">7ujsaTiCShkL7ii3w==</text><text x="20.04" y="36.406" class="f">rafael@grigorian.org</text></svg></svg></g></g></svg></svg>